<?xml version="1.0" standalone="no"?>
<!DOCTYPE svg PUBLIC "-//W3C//DTD SVG 20010904//EN"
 "http://www.w3.org/TR/2001/REC-SVG-20010904/DTD/svg10.dtd">
<svg version="1.0" xmlns="http://www.w3.org/2000/svg"
 width="512.000000pt" height="512.000000pt" viewBox="0 0 512.000000 512.000000"
 preserveAspectRatio="xMidYMid meet">

<g transform="translate(0.000000,512.000000) scale(0.100000,-0.100000)"
fill="#FFFFFF" stroke="none">
<path d="M1625 5100 c-9 -10 -15 -28 -12 -38 2 -11 58 -102 123 -202 94 -147
115 -185 104 -192 -196 -115 -279 -177 -383 -287 -140 -150 -242 -332 -288
-515 -13 -49 -23 -131 -26 -208 l-6 -128 1423 0 1423 0 -6 128 c-12 297 -135
556 -370 778 -81 77 -209 169 -295 213 -24 12 -42 28 -39 34 2 7 57 93 121
192 64 98 116 187 116 196 0 19 -31 49 -52 49 -23 0 -48 -32 -168 -220 -62
-96 -114 -176 -115 -178 -2 -2 -53 13 -115 33 -317 102 -684 102 -1001 -1 -61
-19 -112 -34 -113 -32 -2 2 -58 89 -126 193 -67 105 -128 193 -134 197 -19 13
-42 9 -61 -12z m350 -834 c57 -37 78 -110 49 -171 -23 -50 -66 -75 -128 -75
-43 0 -53 4 -87 39 -35 34 -39 44 -39 87 0 60 25 104 71 127 39 20 97 17 134
-7z m1302 7 c48 -22 73 -66 73 -127 0 -43 -4 -53 -39 -87 -34 -35 -44 -39 -87
-39 -62 0 -105 25 -128 75 -32 67 -5 142 65 177 43 22 71 23 116 1z"/>
<path d="M583 3431 c-69 -23 -132 -77 -168 -142 l-30 -54 -3 -733 c-2 -472 1
-746 8 -771 16 -59 69 -130 124 -166 170 -110 395 -38 465 148 21 57 21 66 21
758 0 496 -3 714 -12 747 -24 100 -114 193 -213 221 -58 16 -132 13 -192 -8z"/>
<path d="M4341 3439 c-76 -22 -152 -88 -193 -168 l-23 -46 0 -735 c0 -700 1
-737 19 -785 26 -66 94 -137 159 -166 75 -33 193 -33 261 0 60 29 117 85 148
143 l23 43 0 755 0 755 -30 54 c-69 125 -226 189 -364 150z"/>
<path d="M1150 2327 c0 -1190 -4 -1124 66 -1205 19 -23 60 -53 92 -69 55 -27
63 -28 239 -32 l182 -3 3 -402 c3 -396 3 -402 26 -444 31 -58 95 -120 151
-145 70 -33 188 -31 261 4 66 31 118 82 151 146 l24 48 3 398 3 397 209 0 209
0 3 -397 3 -398 24 -48 c33 -64 85 -115 151 -146 73 -35 191 -37 261 -4 56 25
120 87 151 145 23 42 23 48 26 444 l3 402 182 3 c176 4 184 5 239 32 32 16 73
46 92 69 70 81 66 15 66 1205 l0 1073 -1410 0 -1410 0 0 -1073z"/>
</g>
</svg>
